<svg width="16" height="20" viewBox="0 0 16 20" fill="none" xmlns="http://www.w3.org/2000/svg">
<path d="M4.67383 1.10352C5.80083 0.761278 6.99558 1.29173 7.50195 2.31543L7.59375 2.52734L8.22266 4.18945C8.54128 5.03512 8.34681 5.98303 7.72949 6.63574L7.59961 6.76172V6.7627L6.04883 8.17188L5.81836 8.38086L5.90527 8.68066C6.09398 9.33497 6.34835 9.96773 6.66406 10.5693L6.80273 10.8252L6.80859 10.835C7.20709 11.5093 7.68735 12.1307 8.23828 12.6846L8.45215 12.8994L8.74121 12.8096L10.75 12.1826C11.6248 11.9094 12.5731 12.1559 13.1973 12.8018L13.3174 12.9365L14.4619 14.3154L14.4629 14.3174C14.8429 14.7718 15.0346 15.3596 14.9951 15.9561C14.9605 16.4776 14.7517 16.9683 14.4082 17.3496L14.252 17.5068L14.25 17.5088C12.5634 19.0679 10.0757 19.5647 8.19141 18.2168L8.01172 18.0811C6.28399 16.7043 4.80535 15.035 3.6416 13.1475L3.41309 12.7676L3.41211 12.7656L3.19238 12.3828C2.18744 10.582 1.48745 8.62272 1.12207 6.58691L1.0498 6.14941C0.698099 3.84254 2.29363 1.91639 4.46191 1.17188L4.67383 1.10352Z" stroke="currentColor"/>
</svg>
