<svg width="26" height="26" viewBox="0 0 26 26" fill="none" xmlns="http://www.w3.org/2000/svg">
<path d="M9.90723 4.59668C11.0066 4.25782 12.1835 4.8386 12.5889 5.92773L13.1758 7.50195C13.4906 8.34987 13.2633 9.30588 12.6016 9.91602L11.1543 11.251L10.9277 11.46L11.0117 11.7549C11.2134 12.4648 11.4953 13.1489 11.8516 13.792L11.8574 13.8018C12.2304 14.4423 12.6804 15.0331 13.1963 15.5596L13.4111 15.7783L13.7041 15.6855L15.5781 15.0918H15.5791C16.4333 14.8212 17.3667 15.0995 17.9355 15.7959L19.0029 17.1025L19.0039 17.1035C19.3542 17.5286 19.5316 18.0801 19.4951 18.6406C19.4585 19.2012 19.2117 19.7227 18.8105 20.0947L18.8076 20.0967C17.2414 21.5663 14.9414 22.028 13.2012 20.7646L13.0342 20.6377C11.3174 19.2491 9.86499 17.5449 8.75 15.6113L8.74902 15.6094L8.54395 15.2471C7.60722 13.5432 6.95489 11.6894 6.61426 9.7627L6.5459 9.34863C6.21957 7.1738 7.70165 5.36146 9.71094 4.66113L9.90723 4.59668Z" stroke="currentColor"/>
</svg>
