<svg width="20" height="20" viewBox="0 0 20 20" fill="none" xmlns="http://www.w3.org/2000/svg">
<path d="M6.67383 1.10352C7.80083 0.761278 8.99558 1.29173 9.50195 2.31543L9.59375 2.52734L10.2227 4.18945C10.5413 5.03512 10.3468 5.98303 9.72949 6.63574L9.59961 6.76172V6.7627L8.04883 8.17188L7.81836 8.38086L7.90527 8.68066C8.09398 9.33497 8.34835 9.96773 8.66406 10.5693L8.80273 10.8252L8.80859 10.835C9.20709 11.5093 9.68735 12.1307 10.2383 12.6846L10.4521 12.8994L10.7412 12.8096L12.75 12.1826C13.6248 11.9094 14.5731 12.1559 15.1973 12.8018L15.3174 12.9365L16.4619 14.3154L16.4629 14.3174C16.8429 14.7718 17.0346 15.3596 16.9951 15.9561C16.9605 16.4776 16.7517 16.9683 16.4082 17.3496L16.252 17.5068L16.25 17.5088C14.5634 19.0679 12.0757 19.5647 10.1914 18.2168L10.0117 18.0811C8.28399 16.7043 6.80535 15.035 5.6416 13.1475L5.41309 12.7676L5.41211 12.7656L5.19238 12.3828C4.18744 10.582 3.48745 8.62272 3.12207 6.58691L3.0498 6.14941C2.6981 3.84254 4.29363 1.91639 6.46191 1.17188L6.67383 1.10352Z" stroke="#3A3A3A"/>
</svg>
