<svg width="20" height="20" viewBox="0 0 20 20" fill="none" xmlns="http://www.w3.org/2000/svg">
<path d="M5.124 16.241L3.6 17.461C2.767 18.126 2.351 18.459 2.001 18.46C1.85053 18.4602 1.70198 18.4263 1.56641 18.361C1.43083 18.2958 1.31174 18.2007 1.218 18.083C1 17.81 1 17.277 1 16.211V4.74104C1 3.62104 1 3.06004 1.218 2.63104C1.41 2.25504 1.715 1.95004 2.092 1.75804C2.52 1.54004 3.08 1.54004 4.2 1.54004H15.8C16.92 1.54004 17.48 1.54004 17.908 1.75804C18.2843 1.94978 18.5903 2.25573 18.782 2.63204C19 3.05904 19 3.61904 19 4.73704V12.344C19 13.461 19 14.02 18.782 14.448C18.5903 14.8243 18.2843 15.1303 17.908 15.322C17.481 15.54 16.922 15.54 15.804 15.54H7.123C6.707 15.54 6.498 15.54 6.299 15.58C6.12271 15.6166 5.95217 15.6768 5.792 15.759C5.612 15.851 5.45 15.98 5.127 16.239L5.124 16.241Z" stroke="#3A3A3A" stroke-linecap="round" stroke-linejoin="round"/>
<path d="M7 9H13" stroke="#3A3A3A" stroke-linecap="round" stroke-linejoin="round"/>
<path d="M10 12V9V6" stroke="#3A3A3A" stroke-linecap="round" stroke-linejoin="round"/>
</svg>
