<svg width="26" height="26" viewBox="0 0 26 26" fill="none" xmlns="http://www.w3.org/2000/svg">
<path d="M7.81277 19.6394L6.19149 20.9372C5.30532 21.6447 4.86277 21.9989 4.49043 22C4.33036 22.0001 4.17232 21.9641 4.0281 21.8947C3.88387 21.8252 3.75718 21.7241 3.65745 21.5989C3.42554 21.3085 3.42554 20.7415 3.42554 19.6074V7.40532C3.42554 6.21383 3.42554 5.61702 3.65745 5.16064C3.86171 4.76064 4.18618 4.43617 4.58724 4.23191C5.04256 4 5.6383 4 6.82979 4H19.1702C20.3617 4 20.9575 4 21.4128 4.23191C21.8131 4.4359 22.1386 4.76138 22.3426 5.1617C22.5745 5.61596 22.5745 6.2117 22.5745 7.40106V15.4936C22.5745 16.6819 22.5745 17.2766 22.3426 17.7319C22.1386 18.1322 21.8131 18.4577 21.4128 18.6617C20.9585 18.8936 20.3638 18.8936 19.1745 18.8936H9.93937C9.49681 18.8936 9.27447 18.8936 9.06277 18.9362C8.87523 18.9751 8.69381 19.0391 8.52341 19.1266C8.33192 19.2245 8.15958 19.3617 7.81596 19.6372L7.81277 19.6394Z" stroke="currentColor" stroke-linecap="round" stroke-linejoin="round"/>
<path d="M9.80853 11.9362H16.1915" stroke="currentColor" stroke-linecap="round" stroke-linejoin="round"/>
<path d="M13 15.1276V11.9361V8.74463" stroke="currentColor" stroke-linecap="round" stroke-linejoin="round"/>
</svg>
