<svg width="20" height="18" viewBox="0 0 20 18" fill="none" xmlns="http://www.w3.org/2000/svg">
<path d="M5.124 15.241L3.6 16.461C2.767 17.126 2.351 17.459 2.001 17.46C1.85053 17.4602 1.70198 17.4263 1.56641 17.361C1.43083 17.2958 1.31174 17.2007 1.218 17.083C1 16.81 1 16.277 1 15.211V3.74104C1 2.62104 1 2.06004 1.218 1.63104C1.41 1.25504 1.715 0.950039 2.092 0.758039C2.52 0.540039 3.08 0.540039 4.2 0.540039H15.8C16.92 0.540039 17.48 0.540039 17.908 0.758039C18.2843 0.949783 18.5903 1.25573 18.782 1.63204C19 2.05904 19 2.61904 19 3.73704V11.344C19 12.461 19 13.02 18.782 13.448C18.5903 13.8243 18.2843 14.1303 17.908 14.322C17.481 14.54 16.922 14.54 15.804 14.54H7.123C6.707 14.54 6.498 14.54 6.299 14.58C6.12271 14.6166 5.95217 14.6768 5.792 14.759C5.612 14.851 5.45 14.98 5.127 15.239L5.124 15.241Z" stroke="currentColor" stroke-linecap="round" stroke-linejoin="round"/>
<path d="M7 8H13" stroke="currentColor" stroke-linecap="round" stroke-linejoin="round"/>
<path d="M10 11V8V5" stroke="currentColor" stroke-linecap="round" stroke-linejoin="round"/>
</svg>
